<?xml version="1.0" encoding="UTF-8"?>
<svg width="80px" height="80px" viewBox="0 0 80 80" version="1.1" xmlns="http://www.w3.org/2000/svg" xmlns:xlink="http://www.w3.org/1999/xlink">
    <title>SNIP Structured Data Plugin for WordPress Logo</title>
    <g  stroke="none" stroke-width="1" fill="none" fill-rule="evenodd">
        <g>
            <rect fill="#E54E52" x="0" y="0" width="80" height="80"></rect>
            <path d="M11.8261719,56.1367188 C12.516276,56.1367188 13.0940755,55.9088542 13.5595703,55.453125 C14.0218099,55.000651 14.2529297,54.4277344 14.2529297,53.734375 C14.2529297,53.2167969 14.1113281,52.7797852 13.828125,52.4233398 C13.5449219,52.0668945 13.0973307,51.764974 12.4853516,51.5175781 L12.4853516,51.5175781 L11.7333984,51.2099609 C11.1865234,50.9853516 10.9130859,50.6891276 10.9130859,50.3212891 C10.9130859,50.054362 11.0172526,49.8330078 11.2255859,49.6572266 C11.4339193,49.4781901 11.6959635,49.3886719 12.0117188,49.3886719 C12.2688802,49.3886719 12.4788411,49.4407552 12.6416016,49.5449219 C12.7978516,49.6360677 12.9622396,49.8313802 13.1347656,50.1308594 L13.1347656,50.1308594 L14.0576172,49.5839844 C13.5693359,48.7376302 12.890625,48.3144531 12.0214844,48.3144531 C11.3769531,48.3144531 10.8382161,48.5065104 10.4052734,48.890625 C9.97233073,49.2714844 9.75585938,49.7451172 9.75585938,50.3115234 C9.75585938,51.1513672 10.2718099,51.789388 11.3037109,52.2255859 L11.3037109,52.2255859 L12.03125,52.5283203 C12.2200521,52.6097005 12.3828125,52.6951497 12.5195312,52.784668 C12.65625,52.8741862 12.7677409,52.9702148 12.8540039,53.0727539 C12.9402669,53.175293 13.0037435,53.2875977 13.0444336,53.409668 C13.0851237,53.5317383 13.1054688,53.6660156 13.1054688,53.8125 C13.1054688,54.1770833 12.9882812,54.4781901 12.7539062,54.7158203 C12.5195312,54.9534505 12.2249349,55.0722656 11.8701172,55.0722656 C11.4208984,55.0722656 11.0791016,54.9095052 10.8447266,54.5839844 C10.7145182,54.4147135 10.6233724,54.108724 10.5712891,53.6660156 L10.5712891,53.6660156 L9.41894531,53.9199219 C9.52311198,54.6230469 9.78515625,55.1682943 10.2050781,55.5556641 C10.6315104,55.9430339 11.171875,56.1367188 11.8261719,56.1367188 Z M17.7050781,56 L17.7050781,49.5302734 L19.4335938,49.5302734 L19.4335938,48.4609375 L14.8339844,48.4609375 L14.8339844,49.5302734 L16.5673828,49.5302734 L16.5673828,56 L17.7050781,56 Z M21.5869141,56 L21.5869141,52.9140625 L21.7919922,52.9140625 L23.9453125,56 L25.3369141,56 L23.0029297,52.7871094 C23.5042318,52.6796875 23.9078776,52.4339193 24.2138672,52.0498047 C24.5198568,51.6656901 24.6728516,51.2067057 24.6728516,50.6728516 C24.6728516,49.9892578 24.4287109,49.4391276 23.9404297,49.0224609 C23.4977214,48.648112 22.7783203,48.4609375 21.7822266,48.4609375 L21.7822266,48.4609375 L20.4492188,48.4609375 L20.4492188,56 L21.5869141,56 Z M21.9482422,51.9228516 L21.5869141,51.9228516 L21.5869141,49.5302734 L21.9921875,49.5302734 C23.0403646,49.5302734 23.5644531,49.9160156 23.5644531,50.6875 C23.5644531,51.5110677 23.0257161,51.9228516 21.9482422,51.9228516 L21.9482422,51.9228516 Z M29.2578125,56.1367188 C30.0683594,56.1367188 30.7519531,55.8502604 31.3085938,55.2773438 C31.8033854,54.7630208 32.0507812,54.108724 32.0507812,53.3144531 L32.0507812,53.3144531 L32.0507812,48.4609375 L30.9130859,48.4609375 L30.9130859,53.0019531 C30.9130859,53.6595052 30.8072917,54.133138 30.5957031,54.4228516 C30.2799479,54.8557943 29.8339844,55.0722656 29.2578125,55.0722656 C28.6848958,55.0722656 28.2405599,54.8557943 27.9248047,54.4228516 C27.7132161,54.1233724 27.6074219,53.6497396 27.6074219,53.0019531 L27.6074219,53.0019531 L27.6074219,48.4609375 L26.4697266,48.4609375 L26.4697266,53.3144531 C26.4697266,54.108724 26.7171224,54.7630208 27.2119141,55.2773438 C27.7652995,55.8502604 28.4472656,56.1367188 29.2578125,56.1367188 Z M37.3779297,56.1367188 C38.0940755,56.1367188 38.7776693,55.9527995 39.4287109,55.5849609 L39.4287109,55.5849609 L39.4287109,54.2128906 C39.2431641,54.3691406 39.066569,54.5026042 38.8989258,54.6132812 C38.7312826,54.7239583 38.5693359,54.811849 38.4130859,54.8769531 C38.133138,55.0071615 37.7929688,55.0722656 37.3925781,55.0722656 C36.6178385,55.0722656 35.9635417,54.8004557 35.4296875,54.2568359 C34.8958333,53.7132161 34.6289062,53.0458984 34.6289062,52.2548828 C34.6289062,51.4541016 34.8958333,50.7770182 35.4296875,50.2236328 C35.9602865,49.6669922 36.6129557,49.3886719 37.3876953,49.3886719 C38.0908203,49.3886719 38.7711589,49.663737 39.4287109,50.2138672 L39.4287109,50.2138672 L39.4287109,48.8662109 C38.7972005,48.4983724 38.1429036,48.3144531 37.4658203,48.3144531 C36.2255859,48.3144531 35.2148438,48.7750651 34.4335938,49.6962891 C33.7988281,50.4482422 33.4814453,51.304362 33.4814453,52.2646484 C33.4814453,53.335612 33.8606771,54.2503255 34.6191406,55.0087891 C35.3808594,55.7607422 36.3004557,56.1367188 37.3779297,56.1367188 Z M42.9443359,56 L42.9443359,49.5302734 L44.6728516,49.5302734 L44.6728516,48.4609375 L40.0732422,48.4609375 L40.0732422,49.5302734 L41.8066406,49.5302734 L41.8066406,56 L42.9443359,56 Z M48.4765625,56.1367188 C49.2871094,56.1367188 49.9707031,55.8502604 50.5273438,55.2773438 C51.0221354,54.7630208 51.2695312,54.108724 51.2695312,53.3144531 L51.2695312,53.3144531 L51.2695312,48.4609375 L50.1318359,48.4609375 L50.1318359,53.0019531 C50.1318359,53.6595052 50.0260417,54.133138 49.8144531,54.4228516 C49.4986979,54.8557943 49.0527344,55.0722656 48.4765625,55.0722656 C47.9036458,55.0722656 47.4593099,54.8557943 47.1435547,54.4228516 C46.9319661,54.1233724 46.8261719,53.6497396 46.8261719,53.0019531 L46.8261719,53.0019531 L46.8261719,48.4609375 L45.6884766,48.4609375 L45.6884766,53.3144531 C45.6884766,54.108724 45.9358724,54.7630208 46.4306641,55.2773438 C46.9840495,55.8502604 47.6660156,56.1367188 48.4765625,56.1367188 Z M54.2138672,56 L54.2138672,52.9140625 L54.4189453,52.9140625 L56.5722656,56 L57.9638672,56 L55.6298828,52.7871094 C56.1311849,52.6796875 56.5348307,52.4339193 56.8408203,52.0498047 C57.1468099,51.6656901 57.2998047,51.2067057 57.2998047,50.6728516 C57.2998047,49.9892578 57.0556641,49.4391276 56.5673828,49.0224609 C56.1246745,48.648112 55.4052734,48.4609375 54.4091797,48.4609375 L54.4091797,48.4609375 L53.0761719,48.4609375 L53.0761719,56 L54.2138672,56 Z M54.5751953,51.9228516 L54.2138672,51.9228516 L54.2138672,49.5302734 L54.6191406,49.5302734 C55.6673177,49.5302734 56.1914062,49.9160156 56.1914062,50.6875 C56.1914062,51.5110677 55.6526693,51.9228516 54.5751953,51.9228516 L54.5751953,51.9228516 Z M63.2568359,56 L63.2568359,54.9306641 L60.234375,54.9306641 L60.234375,52.4111328 L63.1689453,52.4111328 L63.1689453,51.3417969 L60.234375,51.3417969 L60.234375,49.5302734 L63.2568359,49.5302734 L63.2568359,48.4609375 L59.0966797,48.4609375 L59.0966797,56 L63.2568359,56 Z M66.3134766,56 C67.0784505,56 67.6692708,55.930013 68.0859375,55.7900391 C68.531901,55.6500651 68.9583333,55.4010417 69.3652344,55.0429688 C70.1757812,54.3268229 70.5810547,53.3893229 70.5810547,52.2304688 C70.5810547,51.0748698 70.1920573,50.1422526 69.4140625,49.4326172 C69.0299479,49.0810547 68.601888,48.8320312 68.1298828,48.6855469 C67.6904297,48.5358073 67.0914714,48.4609375 66.3330078,48.4609375 L66.3330078,48.4609375 L64.7509766,48.4609375 L64.7509766,56 L66.3134766,56 Z M66.4013672,54.9306641 L65.8886719,54.9306641 L65.8886719,49.5302734 L66.4013672,49.5302734 C67.3714193,49.5302734 68.1054688,49.7597656 68.6035156,50.21875 C69.156901,50.7330729 69.4335938,51.4036458 69.4335938,52.2304688 C69.4335938,53.0507812 69.1536458,53.7164714 68.59375,54.2275391 C68.3203125,54.4749349 68.0143229,54.655599 67.6757812,54.7695312 C67.3372396,54.8769531 66.9124349,54.9306641 66.4013672,54.9306641 L66.4013672,54.9306641 Z M29.0161133,69 C29.7810872,69 30.3719076,68.930013 30.7885742,68.7900391 C31.2345378,68.6500651 31.6609701,68.4010417 32.0678711,68.0429688 C32.878418,67.3268229 33.2836914,66.3893229 33.2836914,65.2304688 C33.2836914,64.0748698 32.894694,63.1422526 32.1166992,62.4326172 C31.7325846,62.0810547 31.3045247,61.8320312 30.8325195,61.6855469 C30.3930664,61.5358073 29.7941081,61.4609375 29.0356445,61.4609375 L29.0356445,61.4609375 L27.4536133,61.4609375 L27.4536133,69 L29.0161133,69 Z M29.1040039,67.9306641 L28.5913086,67.9306641 L28.5913086,62.5302734 L29.1040039,62.5302734 C30.074056,62.5302734 30.8081055,62.7597656 31.3061523,63.21875 C31.8595378,63.7330729 32.1362305,64.4036458 32.1362305,65.2304688 C32.1362305,66.0507812 31.8562826,66.7164714 31.2963867,67.2275391 C31.0229492,67.4749349 30.7169596,67.655599 30.378418,67.7695312 C30.0398763,67.8769531 29.6150716,67.9306641 29.1040039,67.9306641 L29.1040039,67.9306641 Z M35.0756836,69 L35.9155273,67.1689453 L39.1430664,67.1689453 L39.934082,69 L41.1791992,69 L37.5805664,60.9873047 L33.8500977,69 L35.0756836,69 Z M38.6791992,66.0996094 L36.3891602,66.0996094 L37.5610352,63.5361328 L38.6791992,66.0996094 Z M44.2016602,69 L44.2016602,62.5302734 L45.9301758,62.5302734 L45.9301758,61.4609375 L41.3305664,61.4609375 L41.3305664,62.5302734 L43.0639648,62.5302734 L43.0639648,69 L44.2016602,69 Z M47.3071289,69 L48.1469727,67.1689453 L51.3745117,67.1689453 L52.1655273,69 L53.4106445,69 L49.8120117,60.9873047 L46.081543,69 L47.3071289,69 Z M50.9106445,66.0996094 L48.6206055,66.0996094 L49.7924805,63.5361328 L50.9106445,66.0996094 Z" fill="#FFFFFF" fill-rule="nonzero"></path>
            <g transform="translate(6.000000, 9.000000)" fill="#FFFFFF">
                <path d="M62.1946955,5.97428924 C64.4627903,5.97428924 66.1641164,6.86574935 67.2986739,8.64860781 C68.4326912,10.431528 69,12.7725524 69,15.6707547 C69,18.5693893 68.356774,20.863056 67.0708022,22.5520636 C65.7843502,24.2411329 63.9567554,25.0856675 61.5870576,25.0856675 C60.5132939,25.0856675 59.6930277,24.8769728 59.1262591,24.4600772 L59.1262591,27.6818182 L50.0727843,27.6818182 L50.0727843,6.28708443 L57.698355,6.28708443 L58.002144,8.57043989 C58.3667267,7.46540723 59.1765505,6.69373052 60.4326356,6.25578021 C60.9590751,6.06814015 61.5462483,5.97428924 62.1946955,5.97428924 Z M59.5212087,14.3883315 C59.2781536,14.3883315 59.0754276,14.4772429 58.9135708,14.6542013 C58.751234,14.8315918 58.6705157,15.0451644 58.6705157,15.2954129 L58.6705157,17.922806 C58.6705157,18.1940475 58.7464929,18.4129917 58.8983874,18.5797006 C59.0502818,18.7468416 59.2525277,18.8298873 59.5060253,18.8298873 C59.7590427,18.8298873 59.971671,18.7468416 60.1439701,18.5797006 C60.3158491,18.4129917 60.4022087,18.1940475 60.4022087,17.922806 L60.4022087,15.2954129 C60.4022087,15.0451644 60.3158491,14.8315918 60.1439701,14.6542013 C59.971671,14.4772429 59.7642639,14.3883315 59.5212087,14.3883315 Z M38.981127,8.53913567 L48.0346018,8.53913567 L48.0346018,24.7728724 L38.981127,24.7728724 L38.981127,8.53913567 Z M43.4775275,7.81975614 C41.9380581,7.81975614 40.8039807,7.50696095 40.0748753,6.88137058 C39.3457098,6.25578021 38.981127,5.25484797 38.981127,3.8786356 C38.981127,2.50236148 39.3504508,1.5121727 40.0900587,0.907081339 C40.8291865,0.302545678 41.9584627,0 43.4775275,0 C46.515597,0 48.0346018,1.2619242 48.0346018,3.78478469 C48.0346018,5.2236055 47.6595767,6.25578021 46.9105467,6.88137058 C46.1609765,7.50696095 45.0164568,7.81975614 43.4775275,7.81975614 Z M28.3874027,14.8574626 C28.3874027,14.6072758 28.3009831,14.3937033 28.1291641,14.216251 C27.956865,14.0393544 27.7493979,13.9503812 27.5063427,13.9503812 C27.2632876,13.9503812 27.0606216,14.0393544 26.8987649,14.216251 C26.736368,14.3937033 26.6557097,14.6072758 26.6557097,14.8574626 L26.6557097,24.7728724 L18.0579784,24.7728724 L18.0579784,6.28708443 L25.683489,6.28708443 L25.987338,8.57043989 C26.0679963,8.3412461 26.2503177,8.05969338 26.5341821,7.72590523 C26.8175664,7.39261104 27.1213554,7.11105832 27.445609,6.88137058 C28.3366312,6.27683492 29.5214801,5.97428924 31.0001557,5.97428924 C32.9848661,5.97428924 34.4787252,6.53733293 35.4813127,7.66335855 C36.4838402,8.78938417 36.985134,10.4266502 36.985134,12.5741071 L36.985134,24.7728724 L28.3874027,24.7728724 L28.3874027,14.8574626 Z M14.9169255,15.9210032 C15.8482769,16.5675866 16.3144627,17.7459094 16.3144627,19.4554777 C16.3144627,21.16554 15.6963824,22.5315646 14.4612421,23.5529958 C13.2255616,24.5749828 11.0685521,25.0856675 7.99015342,25.0856675 C6.34956107,25.0856675 4.89129011,24.9918166 3.61528051,24.8041766 C2.33933093,24.6164748 1.46823323,24.4288347 1.00258754,24.2411329 L0.303788947,23.9596419 L0.303788947,17.1721222 C0.870617592,17.4644184 1.74687647,17.7302881 2.93172537,17.9697314 C4.11657428,18.2097304 5.33659117,18.3294521 6.59261624,18.3294521 L6.59261624,17.5787683 C4.42516432,17.3705675 2.78457198,16.8593271 1.67095924,16.0460966 C0.556806371,15.2328662 0,13.914261 0,12.0892931 C0,10.2648809 0.678333952,8.78938417 2.03548197,7.66335855 C3.39220988,6.53733293 5.45811876,5.97428924 8.23320858,5.97428924 C9.83293165,5.97428924 11.2760192,6.06814015 12.5624111,6.25578021 C13.848383,6.44348202 14.7346641,6.63112209 15.2207745,6.8188239 L15.919513,7.10031486 L15.919513,14.920071 C14.5419004,14.1903802 12.4864939,13.8252879 9.75221333,13.8252879 L9.75221333,14.5759716 C12.2633633,14.8262201 13.985094,15.2748521 14.9169255,15.9210032 Z"></path>
                <polygon  points="0.313636364 27.0454545 47.9863636 27.0454545 47.9863636 28 0.313636364 28"></polygon>
            </g>
        </g>
    </g>
</svg>